<svg xmlns="http://www.w3.org/2000/svg" width="760" height="377" viewBox="0 0 760 377" font-family="-apple-system, 'Segoe UI', Helvetica, Arial, 'Hiragino Sans', 'Noto Sans CJK JP', 'Yu Gothic', sans-serif" font-size="12">
<style>.t{fill:#1f2328}.m{fill:#59636e}.g{stroke:#d1d9e0}.r{stroke:#1f2328}@media (prefers-color-scheme:dark){.t{fill:#f0f6fc}.m{fill:#9198a1}.g{stroke:#3d444d}.r{stroke:#f0f6fc}}</style>
<text class="t" x="0" y="18" font-size="15" font-weight="600">ネイティブ Go に対する遅さ（幾何平均、対数軸、短いほど速い）</text>
<rect x="0" y="50" width="11" height="11" rx="2" fill="#8c959f"/>
<text class="t" x="16" y="60">手書き JS</text>
<rect x="91" y="50" width="11" height="11" rx="2" fill="#2f81f7"/>
<text class="t" x="107" y="60">goesm</text>
<rect x="160" y="50" width="11" height="11" rx="2" fill="#d29922"/>
<text class="t" x="176" y="60">GopherJS</text>
<rect x="250" y="50" width="11" height="11" rx="2" fill="#a371f7"/>
<text class="t" x="266" y="60">Go wasm</text>
<rect x="333" y="50" width="11" height="11" rx="2" fill="#3fb950"/>
<text class="t" x="349" y="60">TinyGo wasm</text>
<line class="g" x1="150.0" y1="74" x2="150.0" y2="345"/>
<text class="m" x="150.0" y="359" text-anchor="middle">0.50×</text>
<line class="g" x1="249.6" y1="74" x2="249.6" y2="345"/>
<text class="m" x="249.6" y="359" text-anchor="middle">1.00×</text>
<line class="g" x1="349.2" y1="74" x2="349.2" y2="345"/>
<text class="m" x="349.2" y="359" text-anchor="middle">2.00×</text>
<line class="g" x1="480.8" y1="74" x2="480.8" y2="345"/>
<text class="m" x="480.8" y="359" text-anchor="middle">5.00×</text>
<line class="g" x1="580.4" y1="74" x2="580.4" y2="345"/>
<text class="m" x="580.4" y="359" text-anchor="middle">10.0×</text>
<line class="g" x1="680.0" y1="74" x2="680.0" y2="345"/>
<text class="m" x="680.0" y="359" text-anchor="middle">20.0×</text>
<text class="t" x="140" y="120.5" text-anchor="end">Node.js v26.10.0</text>
<rect x="150" y="78" width="101.9" height="13" rx="2" fill="#8c959f"><title>1.0×</title></rect>
<text class="t" x="255.9" y="89" font-size="11">1.0×</text>
<rect x="150" y="94" width="258.3" height="13" rx="2" fill="#2f81f7"><title>3.0×</title></rect>
<text class="t" x="412.3" y="105" font-size="11">3.0×</text>
<rect x="150" y="110" width="449.6" height="13" rx="2" fill="#d29922"><title>11.4×</title></rect>
<text class="t" x="603.6" y="121" font-size="11">11.4×</text>
<rect x="150" y="126" width="259.6" height="13" rx="2" fill="#a371f7"><title>3.0×</title></rect>
<text class="t" x="413.6" y="137" font-size="11">3.0×</text>
<rect x="150" y="142" width="177.5" height="13" rx="2" fill="#3fb950"><title>1.7×</title></rect>
<text class="t" x="331.5" y="153" font-size="11">1.7×</text>
<text class="t" x="140" y="213.5" text-anchor="end">Bun 1.4.2</text>
<rect x="150" y="171" width="121.8" height="13" rx="2" fill="#8c959f"><title>1.2×</title></rect>
<text class="t" x="275.8" y="182" font-size="11">1.2×</text>
<rect x="150" y="187" width="290.8" height="13" rx="2" fill="#2f81f7"><title>3.8×</title></rect>
<text class="t" x="444.8" y="198" font-size="11">3.8×</text>
<rect x="150" y="203" width="423.7" height="13" rx="2" fill="#d29922"><title>9.5×</title></rect>
<text class="t" x="577.7" y="214" font-size="11">9.5×</text>
<rect x="150" y="219" width="240.3" height="13" rx="2" fill="#a371f7"><title>2.7×</title></rect>
<text class="t" x="394.3" y="230" font-size="11">2.7×</text>
<rect x="150" y="235" width="202.4" height="13" rx="2" fill="#3fb950"><title>2.0×</title></rect>
<text class="t" x="356.4" y="246" font-size="11">2.0×</text>
<text class="t" x="140" y="306.5" text-anchor="end">Chromium 141.0.7390.37</text>
<rect x="150" y="264" width="86.6" height="13" rx="2" fill="#8c959f"><title>0.9×</title></rect>
<text class="t" x="240.6" y="275" font-size="11">0.9×</text>
<rect x="150" y="280" width="235.2" height="13" rx="2" fill="#2f81f7"><title>2.6×</title></rect>
<text class="t" x="389.2" y="291" font-size="11">2.6×</text>
<rect x="150" y="296" width="416.3" height="13" rx="2" fill="#d29922"><title>9.1×</title></rect>
<text class="t" x="570.3" y="307" font-size="11">9.1×</text>
<rect x="150" y="312" width="274.4" height="13" rx="2" fill="#a371f7"><title>3.4×</title></rect>
<text class="t" x="428.4" y="323" font-size="11">3.4×</text>
<rect x="150" y="328" width="185.4" height="13" rx="2" fill="#3fb950"><title>1.8×</title></rect>
<text class="t" x="339.4" y="339" font-size="11">1.8×</text>
<line class="r" x1="249.6" y1="72" x2="249.6" y2="345" stroke-dasharray="4 3" stroke-width="1.2"/>
<text class="t" x="249.6" y="373" text-anchor="middle" font-size="11">ネイティブ Go</text>
</svg>
