<svg xmlns="http://www.w3.org/2000/svg" width="760" height="377" viewBox="0 0 760 377" font-family="-apple-system, 'Segoe UI', Helvetica, Arial, 'Hiragino Sans', 'Noto Sans CJK JP', 'Yu Gothic', sans-serif" font-size="12">
<style>.t{fill:#1f2328}.m{fill:#59636e}.g{stroke:#d1d9e0}.r{stroke:#1f2328}@media (prefers-color-scheme:dark){.t{fill:#f0f6fc}.m{fill:#9198a1}.g{stroke:#3d444d}.r{stroke:#f0f6fc}}</style>
<text class="t" x="0" y="18" font-size="15" font-weight="600">ネイティブ Go に対する遅さの幾何平均。横軸は対数で、短いほど速い</text>
<rect x="0" y="50" width="11" height="11" rx="2" fill="#8c959f"/>
<text class="t" x="16" y="60">手書き JS</text>
<rect x="91" y="50" width="11" height="11" rx="2" fill="#2f81f7"/>
<text class="t" x="107" y="60">goesm</text>
<rect x="160" y="50" width="11" height="11" rx="2" fill="#d29922"/>
<text class="t" x="176" y="60">GopherJS</text>
<rect x="250" y="50" width="11" height="11" rx="2" fill="#a371f7"/>
<text class="t" x="266" y="60">Go wasm</text>
<rect x="333" y="50" width="11" height="11" rx="2" fill="#3fb950"/>
<text class="t" x="349" y="60">TinyGo wasm</text>
<line class="g" x1="150.0" y1="74" x2="150.0" y2="345"/>
<text class="m" x="150.0" y="359" text-anchor="middle">0.50×</text>
<line class="g" x1="249.6" y1="74" x2="249.6" y2="345"/>
<text class="m" x="249.6" y="359" text-anchor="middle">1.00×</text>
<line class="g" x1="349.2" y1="74" x2="349.2" y2="345"/>
<text class="m" x="349.2" y="359" text-anchor="middle">2.00×</text>
<line class="g" x1="480.8" y1="74" x2="480.8" y2="345"/>
<text class="m" x="480.8" y="359" text-anchor="middle">5.00×</text>
<line class="g" x1="580.4" y1="74" x2="580.4" y2="345"/>
<text class="m" x="580.4" y="359" text-anchor="middle">10.0×</text>
<line class="g" x1="680.0" y1="74" x2="680.0" y2="345"/>
<text class="m" x="680.0" y="359" text-anchor="middle">20.0×</text>
<text class="t" x="140" y="120.5" text-anchor="end">Node.js v26.10.0</text>
<rect x="150" y="78" width="95.5" height="13" rx="2" fill="#8c959f"><title>0.97×</title></rect>
<text class="t" x="249.5" y="89" font-size="11">0.97×</text>
<rect x="150" y="94" width="118.7" height="13" rx="2" fill="#2f81f7"><title>1.14×</title></rect>
<text class="t" x="272.7" y="105" font-size="11">1.14×</text>
<rect x="150" y="110" width="448.9" height="13" rx="2" fill="#d29922"><title>11.37×</title></rect>
<text class="t" x="602.9" y="121" font-size="11">11.37×</text>
<rect x="150" y="126" width="246.7" height="13" rx="2" fill="#a371f7"><title>2.78×</title></rect>
<text class="t" x="400.7" y="137" font-size="11">2.78×</text>
<rect x="150" y="142" width="178.7" height="13" rx="2" fill="#3fb950"><title>1.73×</title></rect>
<text class="t" x="332.7" y="153" font-size="11">1.73×</text>
<text class="t" x="140" y="213.5" text-anchor="end">Bun 1.4.2</text>
<rect x="150" y="171" width="145.8" height="13" rx="2" fill="#8c959f"><title>1.38×</title></rect>
<text class="t" x="299.8" y="182" font-size="11">1.38×</text>
<rect x="150" y="187" width="119.1" height="13" rx="2" fill="#2f81f7"><title>1.15×</title></rect>
<text class="t" x="273.1" y="198" font-size="11">1.15×</text>
<rect x="150" y="203" width="438.6" height="13" rx="2" fill="#d29922"><title>10.59×</title></rect>
<text class="t" x="592.6" y="214" font-size="11">10.59×</text>
<rect x="150" y="219" width="259.8" height="13" rx="2" fill="#a371f7"><title>3.05×</title></rect>
<text class="t" x="413.8" y="230" font-size="11">3.05×</text>
<rect x="150" y="235" width="191.8" height="13" rx="2" fill="#3fb950"><title>1.90×</title></rect>
<text class="t" x="345.8" y="246" font-size="11">1.90×</text>
<text class="t" x="140" y="306.5" text-anchor="end">Chromium 141.0.7390.37</text>
<rect x="150" y="264" width="88.3" height="13" rx="2" fill="#8c959f"><title>0.92×</title></rect>
<text class="t" x="242.3" y="275" font-size="11">0.92×</text>
<rect x="150" y="280" width="108.5" height="13" rx="2" fill="#2f81f7"><title>1.06×</title></rect>
<text class="t" x="262.5" y="291" font-size="11">1.06×</text>
<rect x="150" y="296" width="424.8" height="13" rx="2" fill="#d29922"><title>9.61×</title></rect>
<text class="t" x="578.8" y="307" font-size="11">9.61×</text>
<rect x="150" y="312" width="259.7" height="13" rx="2" fill="#a371f7"><title>3.05×</title></rect>
<text class="t" x="413.7" y="323" font-size="11">3.05×</text>
<rect x="150" y="328" width="183.0" height="13" rx="2" fill="#3fb950"><title>1.79×</title></rect>
<text class="t" x="337.0" y="339" font-size="11">1.79×</text>
<line class="r" x1="249.6" y1="72" x2="249.6" y2="345" stroke-dasharray="4 3" stroke-width="1.2"/>
<text class="t" x="249.6" y="373" text-anchor="middle" font-size="11">ネイティブ Go</text>
</svg>
