<svg xmlns="http://www.w3.org/2000/svg" width="760" height="377" viewBox="0 0 760 377" font-family="-apple-system, 'Segoe UI', Helvetica, Arial, 'Hiragino Sans', 'Noto Sans CJK JP', 'Yu Gothic', sans-serif" font-size="12">
<style>.t{fill:#1f2328}.m{fill:#59636e}.g{stroke:#d1d9e0}.r{stroke:#1f2328}@media (prefers-color-scheme:dark){.t{fill:#f0f6fc}.m{fill:#9198a1}.g{stroke:#3d444d}.r{stroke:#f0f6fc}}</style>
<text class="t" x="0" y="18" font-size="15" font-weight="600">全カーネルを 1 回ずつ実行した合計 ms。横軸は対数で、短いほど速い</text>
<text class="m" x="0" y="37">* はないカーネルを除いた値</text>
<rect x="0" y="50" width="11" height="11" rx="2" fill="#8c959f"/>
<text class="t" x="16" y="60">手書き JS</text>
<rect x="91" y="50" width="11" height="11" rx="2" fill="#2f81f7"/>
<text class="t" x="107" y="60">goesm</text>
<rect x="160" y="50" width="11" height="11" rx="2" fill="#d29922"/>
<text class="t" x="176" y="60">GopherJS</text>
<rect x="250" y="50" width="11" height="11" rx="2" fill="#a371f7"/>
<text class="t" x="266" y="60">Go wasm</text>
<rect x="333" y="50" width="11" height="11" rx="2" fill="#3fb950"/>
<text class="t" x="349" y="60">TinyGo wasm</text>
<line class="g" x1="150.0" y1="74" x2="150.0" y2="345"/>
<text class="m" x="150.0" y="359" text-anchor="middle">200</text>
<line class="g" x1="255.5" y1="74" x2="255.5" y2="345"/>
<text class="m" x="255.5" y="359" text-anchor="middle">500</text>
<line class="g" x1="335.2" y1="74" x2="335.2" y2="345"/>
<text class="m" x="335.2" y="359" text-anchor="middle">1000</text>
<line class="g" x1="415.0" y1="74" x2="415.0" y2="345"/>
<text class="m" x="415.0" y="359" text-anchor="middle">2000</text>
<line class="g" x1="520.5" y1="74" x2="520.5" y2="345"/>
<text class="m" x="520.5" y="359" text-anchor="middle">5000</text>
<line class="g" x1="600.2" y1="74" x2="600.2" y2="345"/>
<text class="m" x="600.2" y="359" text-anchor="middle">10000</text>
<line class="g" x1="680.0" y1="74" x2="680.0" y2="345"/>
<text class="m" x="680.0" y="359" text-anchor="middle">20000</text>
<text class="t" x="140" y="120.5" text-anchor="end">Node.js v26.10.0</text>
<rect x="150" y="78" width="81.7" height="13" rx="2" fill="#8c959f"><title>407*</title></rect>
<text class="t" x="235.7" y="89" font-size="11">407*</text>
<rect x="150" y="94" width="120.3" height="13" rx="2" fill="#2f81f7"><title>569</title></rect>
<text class="t" x="274.3" y="105" font-size="11">569</text>
<rect x="150" y="110" width="499.2" height="13" rx="2" fill="#d29922"><title>15305</title></rect>
<text class="t" x="653.2" y="121" font-size="11">15305</text>
<rect x="150" y="126" width="258.2" height="13" rx="2" fill="#a371f7"><title>1884</title></rect>
<text class="t" x="412.2" y="137" font-size="11">1884</text>
<rect x="150" y="142" width="204.8" height="13" rx="2" fill="#3fb950"><title>1186</title></rect>
<text class="t" x="358.8" y="153" font-size="11">1186</text>
<text class="t" x="140" y="213.5" text-anchor="end">Bun 1.4.2</text>
<rect x="150" y="171" width="218.5" height="13" rx="2" fill="#8c959f"><title>1335*</title></rect>
<text class="t" x="372.5" y="182" font-size="11">1335*</text>
<rect x="150" y="187" width="114.0" height="13" rx="2" fill="#2f81f7"><title>538</title></rect>
<text class="t" x="268.0" y="198" font-size="11">538</text>
<rect x="150" y="203" width="498.2" height="13" rx="2" fill="#d29922"><title>15170</title></rect>
<text class="t" x="652.2" y="214" font-size="11">15170</text>
<rect x="150" y="219" width="257.8" height="13" rx="2" fill="#a371f7"><title>1878</title></rect>
<text class="t" x="411.8" y="230" font-size="11">1878</text>
<rect x="150" y="235" width="218.7" height="13" rx="2" fill="#3fb950"><title>1338</title></rect>
<text class="t" x="372.7" y="246" font-size="11">1338</text>
<text class="t" x="140" y="306.5" text-anchor="end">Chromium 141.0.7390.37</text>
<rect x="150" y="264" width="69.9" height="13" rx="2" fill="#8c959f"><title>367*</title></rect>
<text class="t" x="223.9" y="275" font-size="11">367*</text>
<rect x="150" y="280" width="106.2" height="13" rx="2" fill="#2f81f7"><title>503</title></rect>
<text class="t" x="260.2" y="291" font-size="11">503</text>
<rect x="150" y="296" width="474.4" height="13" rx="2" fill="#d29922"><title>12336</title></rect>
<text class="t" x="628.4" y="307" font-size="11">12336</text>
<rect x="150" y="312" width="272.1" height="13" rx="2" fill="#a371f7"><title>2127</title></rect>
<text class="t" x="426.1" y="323" font-size="11">2127</text>
<rect x="150" y="328" width="212.7" height="13" rx="2" fill="#3fb950"><title>1269</title></rect>
<text class="t" x="366.7" y="339" font-size="11">1269</text>
<line class="r" x1="268.4" y1="72" x2="268.4" y2="345" stroke-dasharray="4 3" stroke-width="1.2"/>
<text class="t" x="268.4" y="373" text-anchor="middle" font-size="11">ネイティブ Go 560*</text>
</svg>
